<svg width="42" height="42" viewBox="0 0 42 42" fill="none" xmlns="http://www.w3.org/2000/svg">
    <g clip-path="url(#clip0_48_86998)">
        <path d="M33.9311 20.7402L27.2347 20.7332L26.4149 11.6565C26.4116 11.62 26.3998 11.5847 26.3805 11.5535C26.3612 11.5223 26.335 11.4961 26.3038 11.4768C26.2725 11.4575 26.2373 11.4458 26.2008 11.4425C26.1642 11.4392 26.1274 11.4445 26.0933 11.4579L17.613 14.7912L14.6055 8.80536C14.5173 8.63037 14.2605 8.63361 14.1797 8.81448L7.14651 24.463C7.05232 24.6768 7.12792 24.9336 7.32982 25.0583L22.6622 34.527C22.8616 34.6501 23.126 34.6068 23.2741 34.4228L34.1161 21.1264C34.2392 20.9717 34.1296 20.7422 33.9311 20.7402ZM17.2238 26.1825C15.6758 25.2265 15.1944 23.1903 16.1504 21.6424C17.1063 20.0944 19.1425 19.613 20.6905 20.569C22.2384 21.5249 22.7198 23.5611 21.7639 25.1091C20.8079 26.657 18.7717 27.1384 17.2238 26.1825ZM19.7007 22.1718C19.0376 21.7623 18.1667 21.9682 17.7557 22.6337C17.3462 23.2968 17.5506 24.1702 18.2136 24.5797C18.8767 24.9892 19.7476 24.7832 20.1586 24.1177C20.5681 23.4547 20.3637 22.5812 19.7007 22.1718Z" fill="#D1D1D6"/>
    </g>
    <defs>
        <clipPath id="clip0_48_86998">
            <rect width="30" height="30" fill="white" transform="translate(15.7637) rotate(31.698)"/>
        </clipPath>
    </defs>
</svg>
