<svg width="758" height="588" viewBox="0 0 758 588" fill="none" xmlns="http://www.w3.org/2000/svg">
<path d="M30.5927 730.157C24.1031 699.925 13.5599 657.534 12.2002 626.027C10.1263 577.97 24.2556 535.6 50.4 495.723C109.854 405.041 222.864 326.553 333.22 318.731C420.68 312.531 503.574 357.9 515.306 449.742C518.212 472.489 518.3 507.403 503.139 526.849C486.374 548.351 453.705 554.775 428.154 554.721C363.385 554.583 327.641 513.753 315.111 453.562C294.562 354.856 307.996 246.34 393.774 182.909C439.943 148.768 485.748 130.166 539.782 110.471C631.973 76.8672 728.179 53.726 824.3 34.6369C890.166 21.5564 956.58 12 1023.79 12" stroke="#91CAFF" stroke-width="24" stroke-linecap="round"/>
</svg>
