<svg width="46" height="46" viewBox="0 0 46 46" fill="none" xmlns="http://www.w3.org/2000/svg">
<path d="M41.4629 12.7385C40.8608 11.3443 39.9925 10.0809 38.9068 9.019C37.8203 7.95393 36.5393 7.10753 35.1334 6.52584C33.6756 5.92026 32.112 5.61029 30.5334 5.61392C28.3188 5.61392 26.158 6.22037 24.2803 7.36588C23.8311 7.6399 23.4043 7.94088 23 8.26881C22.5957 7.94088 22.1689 7.6399 21.7197 7.36588C19.842 6.22037 17.6812 5.61392 15.4666 5.61392C13.8719 5.61392 12.3266 5.91939 10.8666 6.52584C9.45605 7.10982 8.18477 7.94986 7.09316 9.019C6.00604 10.0797 5.13762 11.3434 4.53711 12.7385C3.9127 14.1895 3.59375 15.7303 3.59375 17.3161C3.59375 18.812 3.89922 20.3708 4.50566 21.9565C5.01328 23.2817 5.74102 24.6563 6.6709 26.0444C8.14434 28.2411 10.1703 30.5321 12.6859 32.8546C16.8547 36.7044 20.983 39.3637 21.1582 39.4715L22.2229 40.1544C22.6945 40.4553 23.301 40.4553 23.7727 40.1544L24.8373 39.4715C25.0125 39.3592 29.1363 36.7044 33.3096 32.8546C35.8252 30.5321 37.8512 28.2411 39.3246 26.0444C40.2545 24.6563 40.9867 23.2817 41.4898 21.9565C42.0963 20.3708 42.4018 18.812 42.4018 17.3161C42.4062 15.7303 42.0873 14.1895 41.4629 12.7385Z" fill="#F5222D"/>
</svg>
