<svg width="191" height="28" viewBox="0 0 191 28" fill="none" xmlns="http://www.w3.org/2000/svg">
<path d="M8.79883 17.3086C8.79883 17.0352 8.75651 16.791 8.67188 16.5762C8.59375 16.3548 8.44727 16.1562 8.23242 15.9805C8.02409 15.7982 7.72786 15.6224 7.34375 15.4531C6.96615 15.2773 6.47786 15.0951 5.87891 14.9062C5.21484 14.6979 4.59635 14.4635 4.02344 14.2031C3.45052 13.9427 2.94596 13.64 2.50977 13.2949C2.08008 12.9499 1.74479 12.5527 1.50391 12.1035C1.26302 11.6478 1.14258 11.1204 1.14258 10.5215C1.14258 9.93555 1.26628 9.40169 1.51367 8.91992C1.76758 8.43815 2.12565 8.02474 2.58789 7.67969C3.05013 7.32812 3.59375 7.05794 4.21875 6.86914C4.85026 6.68034 5.54688 6.58594 6.30859 6.58594C7.36328 6.58594 8.27474 6.77799 9.04297 7.16211C9.81771 7.54622 10.4167 8.06706 10.8398 8.72461C11.263 9.38216 11.4746 10.1211 11.4746 10.9414H8.79883C8.79883 10.4987 8.70443 10.1081 8.51562 9.76953C8.33333 9.43099 8.05339 9.16406 7.67578 8.96875C7.30469 8.77344 6.83594 8.67578 6.26953 8.67578C5.72266 8.67578 5.26693 8.75716 4.90234 8.91992C4.54427 9.08268 4.27409 9.30404 4.0918 9.58398C3.91602 9.86393 3.82812 10.1764 3.82812 10.5215C3.82812 10.7819 3.88997 11.0163 4.01367 11.2246C4.13737 11.4264 4.32292 11.6185 4.57031 11.8008C4.81771 11.9766 5.1237 12.1426 5.48828 12.2988C5.85938 12.4486 6.28906 12.5983 6.77734 12.748C7.55859 12.9824 8.24219 13.2428 8.82812 13.5293C9.42057 13.8158 9.91211 14.1413 10.3027 14.5059C10.6999 14.8704 10.9961 15.2806 11.1914 15.7363C11.3932 16.1921 11.4941 16.7096 11.4941 17.2891C11.4941 17.901 11.3737 18.4479 11.1328 18.9297C10.8919 19.4115 10.5469 19.8216 10.0977 20.1602C9.64844 20.4987 9.10807 20.7559 8.47656 20.9316C7.85156 21.1074 7.15169 21.1953 6.37695 21.1953C5.68685 21.1953 5.00326 21.1042 4.32617 20.9219C3.6556 20.7331 3.04688 20.4531 2.5 20.082C1.95312 19.7044 1.51693 19.2292 1.19141 18.6562C0.865885 18.0768 0.703125 17.3997 0.703125 16.625H3.39844C3.39844 17.0742 3.47005 17.4583 3.61328 17.7773C3.76302 18.0898 3.97135 18.347 4.23828 18.5488C4.51172 18.7441 4.83073 18.8874 5.19531 18.9785C5.5599 19.0697 5.95378 19.1152 6.37695 19.1152C6.92383 19.1152 7.37305 19.0404 7.72461 18.8906C8.08268 18.7344 8.34961 18.5195 8.52539 18.2461C8.70768 17.9727 8.79883 17.6602 8.79883 17.3086ZM18.3691 10.4336V12.2891H12.3145V10.4336H18.3691ZM13.9355 7.83594H16.5234V17.9531C16.5234 18.2656 16.5658 18.5065 16.6504 18.6758C16.735 18.8451 16.862 18.959 17.0312 19.0176C17.2005 19.0762 17.4023 19.1055 17.6367 19.1055C17.806 19.1055 17.9622 19.0957 18.1055 19.0762C18.2487 19.0566 18.3691 19.0371 18.4668 19.0176L18.4766 20.9512C18.2617 21.0228 18.0176 21.0814 17.7441 21.127C17.4772 21.1725 17.1745 21.1953 16.8359 21.1953C16.2565 21.1953 15.7487 21.0977 15.3125 20.9023C14.8763 20.7005 14.5378 20.3783 14.2969 19.9355C14.056 19.4863 13.9355 18.8939 13.9355 18.1582V7.83594ZM26.377 18.4902V10.4336H28.9746V21H26.5332L26.377 18.4902ZM26.709 16.3027L27.5098 16.2832C27.5098 16.9928 27.4316 17.6471 27.2754 18.2461C27.1191 18.8451 26.875 19.3659 26.543 19.8086C26.2174 20.2448 25.804 20.5866 25.3027 20.834C24.8014 21.0749 24.209 21.1953 23.5254 21.1953C23.0046 21.1953 22.5293 21.1237 22.0996 20.9805C21.6699 20.8307 21.2988 20.5996 20.9863 20.2871C20.6803 19.9681 20.4427 19.5612 20.2734 19.0664C20.1042 18.5651 20.0195 17.9629 20.0195 17.2598V10.4336H22.5977V17.2793C22.5977 17.6309 22.6367 17.9238 22.7148 18.1582C22.7995 18.3926 22.9134 18.5846 23.0566 18.7344C23.2064 18.8776 23.3789 18.9818 23.5742 19.0469C23.776 19.1055 23.9909 19.1348 24.2188 19.1348C24.8438 19.1348 25.3353 19.0111 25.6934 18.7637C26.0579 18.5098 26.3184 18.1712 26.4746 17.748C26.6309 17.3184 26.709 16.8366 26.709 16.3027ZM37.5977 18.7539V6H40.1953V21H37.8516L37.5977 18.7539ZM30.8105 15.8438V15.6387C30.8105 14.8314 30.9017 14.099 31.084 13.4414C31.2728 12.7773 31.5462 12.2077 31.9043 11.7324C32.2624 11.2572 32.6953 10.8893 33.2031 10.6289C33.7174 10.3685 34.3001 10.2383 34.9512 10.2383C35.5827 10.2383 36.1328 10.3652 36.6016 10.6191C37.0768 10.873 37.4805 11.2344 37.8125 11.7031C38.151 12.1719 38.4212 12.7285 38.623 13.373C38.8249 14.0111 38.9714 14.7142 39.0625 15.4824V16.0391C38.9714 16.7878 38.8249 17.4746 38.623 18.0996C38.4212 18.7246 38.151 19.2715 37.8125 19.7402C37.4805 20.2025 37.0768 20.5605 36.6016 20.8145C36.1263 21.0684 35.5697 21.1953 34.9316 21.1953C34.2871 21.1953 33.7077 21.0618 33.1934 20.7949C32.6855 20.528 32.2526 20.1536 31.8945 19.6719C31.543 19.1901 31.2728 18.6237 31.084 17.9727C30.9017 17.3216 30.8105 16.612 30.8105 15.8438ZM33.3984 15.6387V15.8438C33.3984 16.2995 33.4375 16.7259 33.5156 17.123C33.5938 17.5202 33.7207 17.8717 33.8965 18.1777C34.0723 18.4772 34.2969 18.7116 34.5703 18.8809C34.8503 19.0501 35.1888 19.1348 35.5859 19.1348C36.0938 19.1348 36.5104 19.0241 36.8359 18.8027C37.168 18.5749 37.4251 18.2656 37.6074 17.875C37.7897 17.4779 37.9069 17.0319 37.959 16.5371V15.0039C37.9329 14.6133 37.8646 14.252 37.7539 13.9199C37.6497 13.5879 37.5 13.3014 37.3047 13.0605C37.1159 12.8197 36.8815 12.6309 36.6016 12.4941C36.3216 12.3574 35.9896 12.2891 35.6055 12.2891C35.2083 12.2891 34.8698 12.377 34.5898 12.5527C34.3099 12.722 34.082 12.9596 33.9062 13.2656C33.7305 13.5716 33.6003 13.9264 33.5156 14.3301C33.4375 14.7337 33.3984 15.1699 33.3984 15.6387ZM45.2637 10.4336V21H42.6758V10.4336H45.2637ZM42.5 7.66992C42.5 7.28581 42.6302 6.9668 42.8906 6.71289C43.1576 6.45898 43.5156 6.33203 43.9648 6.33203C44.4141 6.33203 44.7689 6.45898 45.0293 6.71289C45.2962 6.9668 45.4297 7.28581 45.4297 7.66992C45.4297 8.04753 45.2962 8.36328 45.0293 8.61719C44.7689 8.87109 44.4141 8.99805 43.9648 8.99805C43.5156 8.99805 43.1576 8.87109 42.8906 8.61719C42.6302 8.36328 42.5 8.04753 42.5 7.66992ZM50.2539 12.6895V21H47.6758V10.4336H50.0977L50.2539 12.6895ZM49.8438 15.3359H49.082C49.0885 14.5677 49.1927 13.8711 49.3945 13.2461C49.5964 12.6211 49.8796 12.084 50.2441 11.6348C50.6152 11.1855 51.0547 10.8405 51.5625 10.5996C52.0703 10.3587 52.6367 10.2383 53.2617 10.2383C53.7695 10.2383 54.2285 10.3099 54.6387 10.4531C55.0488 10.5964 55.4004 10.8242 55.6934 11.1367C55.9928 11.4492 56.2207 11.8594 56.377 12.3672C56.5397 12.8685 56.6211 13.487 56.6211 14.2227V21H54.0234V14.2031C54.0234 13.7214 53.9518 13.3405 53.8086 13.0605C53.6719 12.7806 53.4701 12.582 53.2031 12.4648C52.9427 12.3477 52.6204 12.2891 52.2363 12.2891C51.8392 12.2891 51.4909 12.3704 51.1914 12.5332C50.8984 12.6895 50.651 12.9076 50.4492 13.1875C50.2539 13.4674 50.1042 13.7897 50 14.1543C49.8958 14.5189 49.8438 14.9128 49.8438 15.3359ZM65.6152 10.4336H67.959V20.6777C67.959 21.6348 67.7507 22.4453 67.334 23.1094C66.9238 23.7799 66.3477 24.2878 65.6055 24.6328C64.8633 24.9844 64.0007 25.1602 63.0176 25.1602C62.5944 25.1602 62.1354 25.1016 61.6406 24.9844C61.1523 24.8672 60.6803 24.6816 60.2246 24.4277C59.7754 24.1803 59.401 23.8581 59.1016 23.4609L60.2637 21.9375C60.6152 22.3477 61.0124 22.6569 61.4551 22.8652C61.8978 23.0801 62.3763 23.1875 62.8906 23.1875C63.4115 23.1875 63.8542 23.0898 64.2188 22.8945C64.5898 22.7057 64.873 22.4258 65.0684 22.0547C65.2702 21.6901 65.3711 21.2409 65.3711 20.707V12.8457L65.6152 10.4336ZM58.4766 15.8438V15.6387C58.4766 14.8314 58.5742 14.099 58.7695 13.4414C58.9648 12.7773 59.2448 12.2077 59.6094 11.7324C59.9805 11.2572 60.4264 10.8893 60.9473 10.6289C61.4746 10.3685 62.0671 10.2383 62.7246 10.2383C63.4212 10.2383 64.0072 10.3652 64.4824 10.6191C64.9642 10.873 65.3613 11.2344 65.6738 11.7031C65.9928 12.1719 66.2402 12.7285 66.416 13.373C66.5983 14.0111 66.7383 14.7142 66.8359 15.4824V16.0391C66.7448 16.7878 66.5983 17.4746 66.3965 18.0996C66.2012 18.7246 65.9408 19.2715 65.6152 19.7402C65.2897 20.2025 64.8861 20.5605 64.4043 20.8145C63.9225 21.0684 63.3561 21.1953 62.7051 21.1953C62.054 21.1953 61.4681 21.0618 60.9473 20.7949C60.4264 20.528 59.9805 20.1536 59.6094 19.6719C59.2448 19.1901 58.9648 18.6237 58.7695 17.9727C58.5742 17.3216 58.4766 16.612 58.4766 15.8438ZM61.0547 15.6387V15.8438C61.0547 16.2995 61.1003 16.7259 61.1914 17.123C61.2826 17.5202 61.4225 17.8717 61.6113 18.1777C61.8001 18.4772 62.0378 18.7116 62.3242 18.8809C62.6107 19.0501 62.9525 19.1348 63.3496 19.1348C63.8835 19.1348 64.3197 19.0241 64.6582 18.8027C65.0033 18.5749 65.2637 18.2656 65.4395 17.875C65.6217 17.4779 65.7389 17.0319 65.791 16.5371V15.0039C65.7585 14.6133 65.6868 14.252 65.5762 13.9199C65.472 13.5879 65.3255 13.3014 65.1367 13.0605C64.9479 12.8197 64.707 12.6309 64.4141 12.4941C64.1211 12.3574 63.7728 12.2891 63.3691 12.2891C62.9785 12.2891 62.6367 12.377 62.3438 12.5527C62.0508 12.722 61.8099 12.9596 61.6211 13.2656C61.4323 13.5716 61.2891 13.9264 61.1914 14.3301C61.1003 14.7337 61.0547 15.1699 61.0547 15.6387Z" fill="#8E8E93"/>
<g clip-path="url(#clip0_61_5195)">
<path d="M93.5841 28C92.78 28 91.9759 27.8269 91.2766 27.4809C91.1018 27.5501 90.927 27.4463 90.8571 27.3079C90.8571 27.3079 90.8571 27.2733 90.8221 27.2733C89.9131 26.7542 89.179 25.9583 88.7245 24.9202L88.4448 24.2973C88.3749 24.2627 88.3049 24.1935 88.27 24.1243C88.235 24.0551 88.235 23.9513 88.27 23.8821L87.8155 22.8439C85.0186 22.2557 82.6762 20.3871 81.4875 17.8264C79.4947 13.3624 81.5574 8.10261 86.1373 6.09557C88.3399 5.12666 90.7872 5.05745 93.0596 5.88795C95.2972 6.71845 97.0802 8.37944 98.0591 10.5595C99.2128 13.1202 99.038 16.0962 97.6046 18.553L98.5486 20.6293C99.038 21.702 99.1079 22.8439 98.8632 23.8821C98.8982 23.9859 98.8632 24.0897 98.7933 24.1935C98.3737 25.6469 97.3249 26.8926 95.8216 27.5847C95.0524 27.8269 94.3182 28 93.5841 28ZM92.1507 27.0656C93.1995 27.3771 94.3882 27.3425 95.472 26.8926C96.5558 26.4082 97.3599 25.5777 97.8493 24.5742L92.1507 27.0656ZM90.1579 25.8199C90.4725 26.1659 90.8921 26.4774 91.3116 26.7196L98.164 23.709C98.2689 23.2592 98.3038 22.7747 98.2689 22.2903L90.1579 25.8199ZM89.144 24.1243L89.3538 24.6088C89.4586 24.851 89.5635 25.0586 89.7034 25.2662L98.0941 21.5636C98.0241 21.3214 97.9542 21.1137 97.8493 20.8715L97.6396 20.3871L93.3743 22.2557L89.144 24.1243ZM89.8432 5.95716C88.6895 5.95716 87.5008 6.19939 86.417 6.68384C82.2217 8.55246 80.2988 13.397 82.1518 17.5149C83.2006 19.9372 85.4381 21.6674 88.0952 22.1865C88.2 22.2211 88.3049 22.2903 88.3399 22.3941L88.8293 23.5014L92.78 21.7712L90.3676 16.373C90.2977 16.2 90.3676 15.9923 90.5424 15.9231C90.7172 15.8539 90.927 15.9231 90.9969 16.0962L93.4093 21.4944L97.3599 19.7642L96.8704 18.6569C96.8355 18.553 96.8355 18.4492 96.9054 18.3454C98.3038 16.0615 98.4786 13.224 97.3948 10.8017C96.4858 8.79469 94.8776 7.27211 92.78 6.51082C91.836 6.13018 90.8221 5.95716 89.8432 5.95716Z" fill="#1677FF"/>
<path d="M89.9477 16.8229C89.0038 16.8229 88.0948 16.3039 87.6752 15.3695C87.6053 15.1965 87.6752 14.9889 87.85 14.9197C88.0248 14.8505 88.2346 14.9197 88.3045 15.0927C88.6891 15.9578 89.7379 16.3731 90.6469 15.9578C91.0665 15.7502 91.4161 15.4041 91.5909 14.9889C91.7657 14.539 91.7657 14.0892 91.5559 13.6393C91.486 13.4663 91.5559 13.2587 91.7307 13.1895C91.9055 13.1203 92.1153 13.1895 92.1852 13.3625C92.4649 13.9508 92.4649 14.6083 92.2202 15.2311C91.9755 15.854 91.521 16.3385 90.8917 16.5807C90.6469 16.7537 90.2973 16.8229 89.9477 16.8229Z" fill="#1677FF"/>
<path d="M80.6481 7.92963C80.5782 7.92963 80.5083 7.89503 80.4383 7.86043L78.1309 6.02641C77.9911 5.9226 77.9561 5.68037 78.061 5.54195C78.1659 5.40354 78.4106 5.36893 78.5504 5.47274L80.8579 7.30676C80.9977 7.41057 81.0327 7.6528 80.9278 7.79122C80.8579 7.89503 80.753 7.92963 80.6481 7.92963ZM84.9483 4.64225C84.8085 4.64225 84.7036 4.57304 84.6337 4.43462L83.445 1.77011C83.3751 1.59709 83.445 1.38946 83.6198 1.32025C83.7946 1.25105 84.0044 1.32025 84.0743 1.49328L85.263 4.15779C85.3329 4.33081 85.263 4.53843 85.0882 4.60764C85.0183 4.60764 84.9833 4.64225 84.9483 4.64225ZM90.3673 3.60412C90.1575 3.60412 90.0177 3.4311 90.0177 3.22348L90.1925 0.316736C90.1925 0.109112 90.3673 -0.0293047 90.5771 0.00529939C90.7868 0.00529939 90.9267 0.17832 90.8917 0.385944L90.7169 3.29269C90.7169 3.46571 90.5421 3.60412 90.3673 3.60412Z" fill="#1677FF"/>
</g>
<path d="M112.498 19.1641C112.863 19.1641 113.188 19.0924 113.475 18.9492C113.761 18.806 113.989 18.6042 114.158 18.3438C114.334 18.0833 114.428 17.7806 114.441 17.4355H116.873C116.86 18.1517 116.658 18.793 116.268 19.3594C115.877 19.9258 115.356 20.375 114.705 20.707C114.061 21.0326 113.338 21.1953 112.537 21.1953C111.723 21.1953 111.014 21.0586 110.408 20.7852C109.803 20.5117 109.298 20.1309 108.895 19.6426C108.497 19.1543 108.198 18.5879 107.996 17.9434C107.801 17.2988 107.703 16.6087 107.703 15.873V15.5605C107.703 14.8249 107.801 14.1348 107.996 13.4902C108.198 12.8457 108.497 12.2793 108.895 11.791C109.298 11.3027 109.803 10.9219 110.408 10.6484C111.014 10.375 111.72 10.2383 112.527 10.2383C113.38 10.2383 114.129 10.4043 114.773 10.7363C115.424 11.0684 115.932 11.5371 116.297 12.1426C116.668 12.748 116.86 13.4609 116.873 14.2812H114.441C114.428 13.9036 114.344 13.5651 114.188 13.2656C114.031 12.9661 113.81 12.7253 113.523 12.543C113.237 12.3607 112.889 12.2695 112.479 12.2695C112.042 12.2695 111.678 12.3607 111.385 12.543C111.098 12.7253 110.874 12.9759 110.711 13.2949C110.555 13.6074 110.444 13.959 110.379 14.3496C110.32 14.7337 110.291 15.1374 110.291 15.5605V15.873C110.291 16.3027 110.32 16.7129 110.379 17.1035C110.444 17.4941 110.555 17.8457 110.711 18.1582C110.874 18.4642 111.098 18.7083 111.385 18.8906C111.678 19.0729 112.049 19.1641 112.498 19.1641ZM118.133 15.8242V15.6191C118.133 14.8444 118.243 14.1315 118.465 13.4805C118.686 12.8229 119.008 12.2533 119.432 11.7715C119.855 11.2897 120.372 10.9154 120.984 10.6484C121.596 10.375 122.293 10.2383 123.074 10.2383C123.868 10.2383 124.572 10.375 125.184 10.6484C125.802 10.9154 126.323 11.2897 126.746 11.7715C127.169 12.2533 127.492 12.8229 127.713 13.4805C127.934 14.1315 128.045 14.8444 128.045 15.6191V15.8242C128.045 16.5924 127.934 17.3053 127.713 17.9629C127.492 18.6139 127.169 19.1836 126.746 19.6719C126.323 20.1536 125.805 20.528 125.193 20.7949C124.581 21.0618 123.882 21.1953 123.094 21.1953C122.312 21.1953 121.613 21.0618 120.994 20.7949C120.376 20.528 119.855 20.1536 119.432 19.6719C119.008 19.1836 118.686 18.6139 118.465 17.9629C118.243 17.3053 118.133 16.5924 118.133 15.8242ZM120.711 15.6191V15.8242C120.711 16.2865 120.757 16.7194 120.848 17.123C120.939 17.5267 121.079 17.8815 121.268 18.1875C121.456 18.4935 121.701 18.7344 122 18.9102C122.306 19.0794 122.671 19.1641 123.094 19.1641C123.51 19.1641 123.868 19.0794 124.168 18.9102C124.467 18.7344 124.712 18.4935 124.9 18.1875C125.096 17.8815 125.239 17.5267 125.33 17.123C125.421 16.7194 125.467 16.2865 125.467 15.8242V15.6191C125.467 15.1634 125.421 14.737 125.33 14.3398C125.239 13.9362 125.096 13.5814 124.9 13.2754C124.712 12.9629 124.464 12.7188 124.158 12.543C123.859 12.3607 123.497 12.2695 123.074 12.2695C122.658 12.2695 122.299 12.3607 122 12.543C121.701 12.7188 121.456 12.9629 121.268 13.2754C121.079 13.5814 120.939 13.9362 120.848 14.3398C120.757 14.737 120.711 15.1634 120.711 15.6191ZM132.449 12.6895V21H129.871V10.4336H132.293L132.449 12.6895ZM132.039 15.3359H131.277C131.284 14.5677 131.388 13.8711 131.59 13.2461C131.792 12.6211 132.075 12.084 132.439 11.6348C132.811 11.1855 133.25 10.8405 133.758 10.5996C134.266 10.3587 134.832 10.2383 135.457 10.2383C135.965 10.2383 136.424 10.3099 136.834 10.4531C137.244 10.5964 137.596 10.8242 137.889 11.1367C138.188 11.4492 138.416 11.8594 138.572 12.3672C138.735 12.8685 138.816 13.487 138.816 14.2227V21H136.219V14.2031C136.219 13.7214 136.147 13.3405 136.004 13.0605C135.867 12.7806 135.665 12.582 135.398 12.4648C135.138 12.3477 134.816 12.2891 134.432 12.2891C134.035 12.2891 133.686 12.3704 133.387 12.5332C133.094 12.6895 132.846 12.9076 132.645 13.1875C132.449 13.4674 132.299 13.7897 132.195 14.1543C132.091 14.5189 132.039 14.9128 132.039 15.3359ZM147.43 18.7539V6H150.027V21H147.684L147.43 18.7539ZM140.643 15.8438V15.6387C140.643 14.8314 140.734 14.099 140.916 13.4414C141.105 12.7773 141.378 12.2077 141.736 11.7324C142.094 11.2572 142.527 10.8893 143.035 10.6289C143.549 10.3685 144.132 10.2383 144.783 10.2383C145.415 10.2383 145.965 10.3652 146.434 10.6191C146.909 10.873 147.312 11.2344 147.645 11.7031C147.983 12.1719 148.253 12.7285 148.455 13.373C148.657 14.0111 148.803 14.7142 148.895 15.4824V16.0391C148.803 16.7878 148.657 17.4746 148.455 18.0996C148.253 18.7246 147.983 19.2715 147.645 19.7402C147.312 20.2025 146.909 20.5605 146.434 20.8145C145.958 21.0684 145.402 21.1953 144.764 21.1953C144.119 21.1953 143.54 21.0618 143.025 20.7949C142.518 20.528 142.085 20.1536 141.727 19.6719C141.375 19.1901 141.105 18.6237 140.916 17.9727C140.734 17.3216 140.643 16.612 140.643 15.8438ZM143.23 15.6387V15.8438C143.23 16.2995 143.27 16.7259 143.348 17.123C143.426 17.5202 143.553 17.8717 143.729 18.1777C143.904 18.4772 144.129 18.7116 144.402 18.8809C144.682 19.0501 145.021 19.1348 145.418 19.1348C145.926 19.1348 146.342 19.0241 146.668 18.8027C147 18.5749 147.257 18.2656 147.439 17.875C147.622 17.4779 147.739 17.0319 147.791 16.5371V15.0039C147.765 14.6133 147.697 14.252 147.586 13.9199C147.482 13.5879 147.332 13.3014 147.137 13.0605C146.948 12.8197 146.714 12.6309 146.434 12.4941C146.154 12.3574 145.822 12.2891 145.438 12.2891C145.04 12.2891 144.702 12.377 144.422 12.5527C144.142 12.722 143.914 12.9596 143.738 13.2656C143.562 13.5716 143.432 13.9264 143.348 14.3301C143.27 14.7337 143.23 15.1699 143.23 15.6387ZM155.096 10.4336V21H152.508V10.4336H155.096ZM152.332 7.66992C152.332 7.28581 152.462 6.9668 152.723 6.71289C152.99 6.45898 153.348 6.33203 153.797 6.33203C154.246 6.33203 154.601 6.45898 154.861 6.71289C155.128 6.9668 155.262 7.28581 155.262 7.66992C155.262 8.04753 155.128 8.36328 154.861 8.61719C154.601 8.87109 154.246 8.99805 153.797 8.99805C153.348 8.99805 152.99 8.87109 152.723 8.61719C152.462 8.36328 152.332 8.04753 152.332 7.66992ZM162.557 10.4336V12.2891H156.502V10.4336H162.557ZM158.123 7.83594H160.711V17.9531C160.711 18.2656 160.753 18.5065 160.838 18.6758C160.923 18.8451 161.049 18.959 161.219 19.0176C161.388 19.0762 161.59 19.1055 161.824 19.1055C161.993 19.1055 162.15 19.0957 162.293 19.0762C162.436 19.0566 162.557 19.0371 162.654 19.0176L162.664 20.9512C162.449 21.0228 162.205 21.0814 161.932 21.127C161.665 21.1725 161.362 21.1953 161.023 21.1953C160.444 21.1953 159.936 21.0977 159.5 20.9023C159.064 20.7005 158.725 20.3783 158.484 19.9355C158.243 19.4863 158.123 18.8939 158.123 18.1582V7.83594ZM167.01 10.4336V21H164.422V10.4336H167.01ZM164.246 7.66992C164.246 7.28581 164.376 6.9668 164.637 6.71289C164.904 6.45898 165.262 6.33203 165.711 6.33203C166.16 6.33203 166.515 6.45898 166.775 6.71289C167.042 6.9668 167.176 7.28581 167.176 7.66992C167.176 8.04753 167.042 8.36328 166.775 8.61719C166.515 8.87109 166.16 8.99805 165.711 8.99805C165.262 8.99805 164.904 8.87109 164.637 8.61719C164.376 8.36328 164.246 8.04753 164.246 7.66992ZM169.012 15.8242V15.6191C169.012 14.8444 169.122 14.1315 169.344 13.4805C169.565 12.8229 169.887 12.2533 170.311 11.7715C170.734 11.2897 171.251 10.9154 171.863 10.6484C172.475 10.375 173.172 10.2383 173.953 10.2383C174.747 10.2383 175.451 10.375 176.062 10.6484C176.681 10.9154 177.202 11.2897 177.625 11.7715C178.048 12.2533 178.37 12.8229 178.592 13.4805C178.813 14.1315 178.924 14.8444 178.924 15.6191V15.8242C178.924 16.5924 178.813 17.3053 178.592 17.9629C178.37 18.6139 178.048 19.1836 177.625 19.6719C177.202 20.1536 176.684 20.528 176.072 20.7949C175.46 21.0618 174.76 21.1953 173.973 21.1953C173.191 21.1953 172.492 21.0618 171.873 20.7949C171.255 20.528 170.734 20.1536 170.311 19.6719C169.887 19.1836 169.565 18.6139 169.344 17.9629C169.122 17.3053 169.012 16.5924 169.012 15.8242ZM171.59 15.6191V15.8242C171.59 16.2865 171.635 16.7194 171.727 17.123C171.818 17.5267 171.958 17.8815 172.146 18.1875C172.335 18.4935 172.579 18.7344 172.879 18.9102C173.185 19.0794 173.549 19.1641 173.973 19.1641C174.389 19.1641 174.747 19.0794 175.047 18.9102C175.346 18.7344 175.59 18.4935 175.779 18.1875C175.975 17.8815 176.118 17.5267 176.209 17.123C176.3 16.7194 176.346 16.2865 176.346 15.8242V15.6191C176.346 15.1634 176.3 14.737 176.209 14.3398C176.118 13.9362 175.975 13.5814 175.779 13.2754C175.59 12.9629 175.343 12.7188 175.037 12.543C174.738 12.3607 174.376 12.2695 173.953 12.2695C173.536 12.2695 173.178 12.3607 172.879 12.543C172.579 12.7188 172.335 12.9629 172.146 13.2754C171.958 13.5814 171.818 13.9362 171.727 14.3398C171.635 14.737 171.59 15.1634 171.59 15.6191ZM183.328 12.6895V21H180.75V10.4336H183.172L183.328 12.6895ZM182.918 15.3359H182.156C182.163 14.5677 182.267 13.8711 182.469 13.2461C182.671 12.6211 182.954 12.084 183.318 11.6348C183.689 11.1855 184.129 10.8405 184.637 10.5996C185.145 10.3587 185.711 10.2383 186.336 10.2383C186.844 10.2383 187.303 10.3099 187.713 10.4531C188.123 10.5964 188.475 10.8242 188.768 11.1367C189.067 11.4492 189.295 11.8594 189.451 12.3672C189.614 12.8685 189.695 13.487 189.695 14.2227V21H187.098V14.2031C187.098 13.7214 187.026 13.3405 186.883 13.0605C186.746 12.7806 186.544 12.582 186.277 12.4648C186.017 12.3477 185.695 12.2891 185.311 12.2891C184.913 12.2891 184.565 12.3704 184.266 12.5332C183.973 12.6895 183.725 12.9076 183.523 13.1875C183.328 13.4674 183.178 13.7897 183.074 14.1543C182.97 14.5189 182.918 14.9128 182.918 15.3359Z" fill="#8E8E93"/>
<defs>
<clipPath id="clip0_61_5195">
<rect width="21" height="28" fill="white" transform="translate(78)"/>
</clipPath>
</defs>
</svg>
